<svg xmlns="http://www.w3.org/2000/svg" xmlns:xlink="http://www.w3.org/1999/xlink" viewBox="0 0 1024 1024"><defs><style>.cls-1{fill:none;}.cls-2{isolation:isolate;}.cls-3{fill:url(#linear-gradient);}.cls-4{clip-path:url(#clip-path);}.cls-5{mix-blend-mode:multiply;fill:url(#radial-gradient);}.cls-6{fill:#8ea9bc;}.cls-7{fill:url(#linear-gradient-2);}.cls-8{fill:#3cf;}.cls-9{fill:#a4ebff;}.cls-10{fill:#c8f3ff;}.cls-11{fill:#383838;}.cls-12{fill:#3f4d56;}.cls-13{fill:#142835;}.cls-14{fill:#dd1ddd;}.cls-15{fill:#647785;}.cls-16{fill:#344954;}.cls-17{fill:#fffeff;}.cls-18{fill:#fff;}.cls-19{fill:url(#linear-gradient-3);}.cls-20{fill:url(#linear-gradient-4);}</style><linearGradient id="linear-gradient" x1="512" y1="1024" x2="512" gradientUnits="userSpaceOnUse"><stop offset="0" stop-color="#142835"/><stop offset="0.64" stop-color="#627a88"/></linearGradient><clipPath id="clip-path"><rect class="cls-1" y="389.08" width="1024" height="522"/></clipPath><radialGradient id="radial-gradient" cx="597.22" cy="802.59" r="334.72" gradientTransform="translate(242.39) scale(0.65 1)" gradientUnits="userSpaceOnUse"><stop offset="0" stop-color="#344954"/><stop offset="0.11" stop-color="#344954" stop-opacity="0.85"/><stop offset="0.5" stop-color="#344954" stop-opacity="0.39"/><stop offset="0.81" stop-color="#344954" stop-opacity="0.1"/><stop offset="1" stop-color="#344954" stop-opacity="0"/></radialGradient><linearGradient id="linear-gradient-2" x1="-5280.15" y1="533.82" x2="-5280.15" y2="240.97" gradientTransform="matrix(-1, 0, 0, 1, -4536.25, 0)" gradientUnits="userSpaceOnUse"><stop offset="0.1" stop-color="#789ab4"/><stop offset="0.18" stop-color="#5a7b95"/><stop offset="0.27" stop-color="#3f5f79"/><stop offset="0.38" stop-color="#2a4964"/><stop offset="0.49" stop-color="#1b3954"/><stop offset="0.62" stop-color="#12304b"/><stop offset="0.8" stop-color="#0f2d48"/></linearGradient><linearGradient id="linear-gradient-3" x1="318.15" y1="398.13" x2="70.78" y2="242.51" gradientUnits="userSpaceOnUse"><stop offset="0" stop-color="#3cf"/><stop offset="0.03" stop-color="#3cceff"/><stop offset="0.3" stop-color="#81dfff"/><stop offset="0.53" stop-color="#b7edff"/><stop offset="0.74" stop-color="#def7ff"/><stop offset="0.9" stop-color="#f6fdff"/><stop offset="1" stop-color="#fff"/></linearGradient><linearGradient id="linear-gradient-4" x1="346.17" y1="410.85" x2="271.77" y2="545.38" gradientUnits="userSpaceOnUse"><stop offset="0.19" stop-color="#3cf"/><stop offset="0.3" stop-color="#64d8ff"/><stop offset="0.42" stop-color="#93e4ff"/><stop offset="0.54" stop-color="#baeeff"/><stop offset="0.66" stop-color="#d8f5ff"/><stop offset="0.78" stop-color="#eefbff"/><stop offset="0.89" stop-color="#fbfeff"/><stop offset="1" stop-color="#fff"/></linearGradient></defs><title>APP ICON (Opt2-Medium))</title><g class="cls-2"><g id="Layer_1" data-name="Layer 1"><rect class="cls-3" width="1024" height="1024"/><g class="cls-4"><ellipse class="cls-5" cx="627.78" cy="802.59" rx="216" ry="334.72"/></g><path class="cls-6" d="M686.53,221.54V481.82l.08,0q9.35,3,18.54,6.66,8.43,3.33,16.7,7.26,6.49,3.08,12.9,6.48c.64.33,1.28.68,1.91,1a310.27,310.27,0,0,1,46,30.55q9.57,7.68,18.63,16.14V221.54Z"/><path class="cls-7" d="M705.15,241V488.5q8.43,3.33,16.7,7.26,6.49,3.08,12.9,6.48c.64.33,1.28.68,1.91,1a310.27,310.27,0,0,1,46,30.55V241Z"/><path class="cls-8" d="M512.45,482.88a279.25,279.25,0,0,1,53-12.09q10.25-1.31,20.62-1.86l.66,0c4.69-.23,9.11-.36,13.5-.37H601a280.07,280.07,0,0,1,73.2,9.66c4.12,1.11,8.21,2.32,12.3,3.64l.08,0q9.35,3,18.54,6.66,8.43,3.33,16.7,7.26,6.49,3.08,12.9,6.48c.64.33,1.28.68,1.91,1-27.11-95.39,35.59-115.7,35.59-115.7V295.44s-28,2.77-67.1,14.54c-6,1.79-12.21,3.8-18.62,6-47.2,16.44-105,45.41-149.29,95.67a15.68,15.68,0,0,0-3.93,10.44A15.52,15.52,0,0,0,545,437.47c7,1.63,8.93,11.08,3.16,15.54C538.35,460.59,525.05,471.3,512.45,482.88Z"/><path class="cls-9" d="M553.26,425.88a3.45,3.45,0,0,0-.28-.26,14.29,14.29,0,0,1-.21-20.37c51.73-50.54,122.37-73.76,167.73-86.12,0,0-107,45.85-147.29,104.86A12.93,12.93,0,0,1,553.26,425.88Z"/><path class="cls-10" d="M645.65,349.53a346.85,346.85,0,0,0-46.48,25.61,267.73,267.73,0,0,0-41.72,33.78,2.67,2.67,0,0,0-.07,3.66,2.41,2.41,0,0,0,3.51.08l.08-.09a265.11,265.11,0,0,1,39.58-35.27A346.69,346.69,0,0,1,645.65,349.53Z"/><path class="cls-9" d="M565.49,470.79q3.33-.44,6.68-.77,6.95-.72,13.94-1.09l.66,0c4.69-.23,9.11-.36,13.5-.37H601a280.17,280.17,0,0,1,62.77,7.07q5.24,1.19,10.43,2.59c0-24.33,5.45-46.29,12.3-64.25a209.27,209.27,0,0,1,18.62-37.19,134.88,134.88,0,0,1,8.06-11.56,78.37,78.37,0,0,0-8.06,4.66,122.56,122.56,0,0,0-18.62,14.83c-12.78,12.34-26.39,30.92-31.46,56.65,0,0-4.28-24.68,4.27-42.28,0,0-29,21.23-35.91,41.71.19-1.67,5.68-45.27,63.1-83.38,5.68-3.76,11.86-7.48,18.62-11.09a283.94,283.94,0,0,1,32.94-15c-.76.14-13.85,2.79-32.94,10.24-5.73,2.23-12,4.91-18.62,8.07C647.3,368.35,595.17,404.41,565.49,470.79Z"/><path class="cls-10" d="M572.17,470q6.95-.72,13.94-1.09l.66,0c4.69-.23,9.11-.36,13.5-.37H601a280.17,280.17,0,0,1,62.77,7.07c1.51-19.18,9.86-45.45,17-64.06a220.25,220.25,0,0,1,9.83-22c-15.58,15.11-25.47,32.95-29.43,53.06a6.29,6.29,0,0,1-6.09,5.17H655a6.29,6.29,0,0,1-6-5.32,101.74,101.74,0,0,1-.67-25.61c-7.6,7.33-15.93,16.92-19,26a6.22,6.22,0,0,1-5.86,4.33,5.64,5.64,0,0,1-1.4-.17,6.46,6.46,0,0,1-4.76-7.06c.17-1.56,3.94-31.69,36.33-64.08C626,394.72,592.71,430.23,572.17,470Z"/><path class="cls-11" d="M400.07,832.31A459.56,459.56,0,0,0,407,911.08h64a385,385,0,0,1-7.52-58.19c-.07-1-.12-2.11-.17-3.16,0-.19,0-.37,0-.57,0-1.13-.1-2.29-.14-3.43l-.11-3.38c0-1.12,0-2.25-.07-3.39s0-2.26-.05-3.39,0-2.28,0-3.42c0-1.63,0-3.25,0-4.88q0-1.42,0-2.85c0-.76,0-1.53,0-2.28,0-1.34.06-2.68.11-4,0-.16,0-.31,0-.47,0-1.24.08-2.47.14-3.7,2.1-49.37,13.16-95.07,30.78-133.34.29-.66.6-1.32.91-2q1.06-2.28,2.16-4.52c.39-.79.77-1.58,1.17-2.36.67-1.34,1.35-2.66,2.05-4a1.17,1.17,0,0,1,.05-.11c.72-1.38,1.45-2.76,2.2-4.12.11-.22.22-.42.34-.63q1.16-2.13,2.35-4.21c.05-.09.1-.18.16-.27s.17-.3.26-.44.19-.32.27-.48c.64-1.1,1.27-2.19,1.92-3.26.12-.21.24-.42.37-.62.71-1.18,1.41-2.33,2.13-3.49l.06-.1c.71-1.13,1.42-2.24,2.14-3.35.4-.64.81-1.26,1.22-1.88s1-1.49,1.49-2.23.93-1.38,1.4-2.07l1.61-2.29c.51-.73,1-1.44,1.54-2.15l1.55-2.11c.24-.33.49-.65.73-1,24.13-32.14,54.2-54.32,87.4-62.31h0l.09,0c1.08-.28,2.17-.52,3.26-.74,0,0,0,0,0,0,1.12-.25,2.22-.47,3.35-.66l1.09-.2c.5-.09,1-.17,1.51-.24l.86-.13h0l1.59-.24.94-.11h.07l.19,0,.26,0a2.3,2.3,0,0,1,.26,0l.86-.1c.28,0,.57-.06.85-.09l1.72-.17.31,0c.33,0,.68-.07,1-.09l1.21-.1h0l.77,0h.31l1.62-.09a1.62,1.62,0,0,0,.31,0h.31l.78,0h.8l1.45,0h1.47c1.63,0,3.26,0,4.89.09l2.19.1c.72,0,1.46.09,2.19.15l.94.07c.11,0,.22,0,.34,0l.23,0L649,568c.63.06,1.25.13,1.89.21s1.2.14,1.81.23,1,.13,1.46.21,1.05.15,1.55.23l.4.06c42.76,7,80.93,37.4,108.79,82.53,1.42,2.32,2.83,4.68,4.2,7.06l1.37,2.41q2,3.63,4,7.37,2.61,5,5,10.16c1.23,2.58,2.42,5.21,3.58,7.86s2.29,5.33,3.39,8c.73,1.83,1.45,3.66,2.14,5.49s1.41,3.71,2.08,5.57q2,5.61,3.87,11.38c.93,2.88,1.81,5.79,2.67,8.74s1.69,5.91,2.47,8.91c.52,2,1,4,1.52,6s1,4,1.43,6.1q1.4,6.13,2.58,12.39c.6,3.14,1.16,6.29,1.67,9.47A395.38,395.38,0,0,1,812,831.26a391.33,391.33,0,0,1-7.91,79.82h41.16A460.75,460.75,0,0,0,852,831.15C851.53,651.81,750,506.66,625.24,507q-4.47,0-8.89.29h-.21c-25.59,1.52-50.08,9.17-72.77,22C459.2,576.57,399.74,694.5,400.07,832.31Z"/><path class="cls-12" d="M550.93,831.93a128.22,128.22,0,0,0,1.69,20.73,113.69,113.69,0,0,0,10,31.94,92.4,92.4,0,0,0,7,11.83,73.38,73.38,0,0,0,13.29,14.65H612c-19.1-15.77-32-45.33-32.09-79.23-.1-47.41,24.9-86.46,57.07-91.23h0a44.06,44.06,0,0,1,6.51-.49l-24.32,0h-4.67a42.58,42.58,0,0,0-4.67.26,46.08,46.08,0,0,0-10.26,2.31C588.22,746.71,578,755,570,766.41a89.31,89.31,0,0,0-7.05,11.8,113.47,113.47,0,0,0-10.77,35.52A131.82,131.82,0,0,0,550.93,831.93Z"/><path class="cls-13" d="M296.73,829.22q0,7.42.29,14.77a424.28,424.28,0,0,0,7.73,67.09H429.37a415.48,415.48,0,0,1-7.63-78.83c-.32-138.14,65.8-254.18,155.14-285.68a191.37,191.37,0,0,0-33.51-17.35c-3.55-1.41-7.13-2.71-10.75-3.87a.14.14,0,0,0-.09,0A167.32,167.32,0,0,0,487,517.26h0l-1.44-.06a170.93,170.93,0,0,0-17.41,5,183.34,183.34,0,0,0-35.05,16.44c-2.07,1.26-4.13,2.54-6.18,3.89l-.07,0c-2,1.28-3.9,2.6-5.84,4-2.09,1.46-4.17,3-6.23,4.56l-.12.09q-2.56,1.94-5.09,4a2.61,2.61,0,0,0-.33.27c-18.4,14.89-35.13,33.33-49.74,54.61q-6.15,8.94-11.76,18.53a1.43,1.43,0,0,0-.12.21,355.44,355.44,0,0,0-32.77,75.43q-3.42,11.22-6.24,22.83A428.72,428.72,0,0,0,296.8,821a.61.61,0,0,0,0,.19C296.75,823.84,296.72,826.53,296.73,829.22Z"/><path class="cls-14" d="M308.28,727.06h0c.12-.44.22-.91.32-1.36C308.5,726.15,308.38,726.6,308.28,727.06Z"/><path class="cls-15" d="M359.11,610.05h2.09l44.28-.11h0c2.7-3.36,5.47-6.61,8.28-9.73.93-1.05,1.89-2.07,2.85-3.09q1.9-2,3.84-4c1.73-1.75,3.47-3.44,5.23-5.09h0q3.53-3.3,7.16-6.37h0L410,556.25l-.73-.81-.25-.27C390.52,570.13,373.74,588.65,359.11,610.05Zm-4.92,7.41h.21l4.68-7.38Q356.59,613.71,354.19,617.46ZM296.41,821.17l.39-.19,1.75-.87,39.16-19.49h0q.79-11.08,2.11-21.91c.3-2.39.61-4.79.94-7.17q.28-2,.6-4.08c0-.28.07-.57.12-.84.44-2.81.9-5.59,1.37-8.38.4-2.29.8-4.57,1.24-6.83s.88-4.52,1.35-6.77c.31-1.49.64-3,1-4.47.66-3,1.35-5.92,2.06-8.85.36-1.46.73-2.92,1.1-4.37h0l-39.23.1h-2A430.43,430.43,0,0,0,296.41,821.17Zm.2,22.82a434.18,434.18,0,0,0,7.46,67.09h39.72c-.24-1.23-.46-2.46-.68-3.69-.53-2.94-1-5.89-1.47-8.88-.18-1.14-.36-2.29-.52-3.44-.11-.76-.22-1.52-.32-2.27-.14-1-.28-2-.41-2.95q-.66-4.85-1.18-9.77c-.13-1.08-.24-2.18-.35-3.27q-.8-7.71-1.3-15.55c-.1-1.44-.19-2.88-.26-4.31q-.36-6.5-.52-13.07h0l-38,.11Zm-.24-10.44v.34s0,0,0,0,0,0,0,0a1.08,1.08,0,0,1,0-.31Zm0,.39s0,0,0,0V834s0,0,0,0S296.39,833.94,296.39,833.94Zm0-.05v0a0,0,0,0,1,0,0s0,0,0,0Zm18.18-129.67h2l39.62-.1h0q1.65-5.07,3.43-10c.4-1.1.79-2.2,1.19-3.29l1.23-3.27q1.71-4.46,3.51-8.83,5.44-13.07,11.73-25.15l0,0-.85-.92-27.66-22.85-1.15-1h0l-.25-.21A357.81,357.81,0,0,0,314.55,704.22ZM420.34,546.54l.65,0,.25,0,5.59-3.94.07,0,5.5-3.89C428.31,541.08,424.3,543.73,420.34,546.54Zm12.06-7.91h2.43l33.33-.09,0-15.76v-.95h0A183.15,183.15,0,0,0,432.4,538.63Z"/><path class="cls-13" d="M336.6,833.12q0,5.4.15,10.76c.13,4.38.3,8.74.55,13.07.07,1.43.16,2.87.26,4.31q.49,7.85,1.3,15.55c.11,1.09.22,2.19.35,3.27q.53,4.92,1.18,9.77c.13,1,.27,2,.41,2.95.1.75.21,1.51.32,2.27.16,1.15.34,2.3.52,3.44.45,3,.94,5.94,1.47,8.88.21,1.23.43,2.48.67,3.69h45.7a459.83,459.83,0,0,1-6.82-67.31c-.11-3.8-.17-7.59-.18-11.41,0-1.94,0-3.89,0-5.82,0-1.33,0-2.66.05-4,0-.53,0-1.08,0-1.61,0-1.45.06-2.91.11-4.36,0-.66,0-1.31.06-2,.05-1.69.11-3.38.2-5.06,0-.91.07-1.84.12-2.73,0-.14,0-.3,0-.44,0-.61.06-1.21.1-1.8.06-1.36.15-2.73.23-4.09a446,446,0,0,1,10.84-73.68.35.35,0,0,1,0-.11c.43-1.86.86-3.71,1.34-5.53.37-1.52.75-3,1.15-4.54.19-.69.36-1.39.55-2.08,0-.14.07-.27.11-.41.35-1.3.69-2.57,1.05-3.85.16-.61.34-1.22.51-1.81.42-1.52.86-3,1.31-4.5a384.24,384.24,0,0,1,18.78-50.56c.74-1.64,1.51-3.27,2.28-4.9s1.5-3.15,2.26-4.71l.07-.14c.71-1.42,1.42-2.85,2.14-4.26.52-1,1-2,1.57-3q1.06-2,2.15-4c.72-1.33,1.44-2.66,2.19-4q1.31-2.4,2.69-4.76c.63-1.12,1.28-2.21,1.95-3.31.12-.23.27-.48.42-.71.37-.64.76-1.27,1.14-1.89,1.6-2.66,3.25-5.29,4.93-7.86a288.57,288.57,0,0,1,20.8-28.26c.85-1,1.7-2,2.56-3l1.24-1.44c.93-1.06,1.86-2.12,2.82-3.16.56-.64,1.14-1.27,1.72-1.89.14-.15.28-.31.43-.45.48-.53,1-1,1.45-1.55a1.5,1.5,0,0,1,.25-.26c.63-.69,1.28-1.36,1.93-2,.88-.93,1.79-1.83,2.7-2.75.42-.42.84-.85,1.28-1.27,1.7-1.69,3.41-3.33,5.15-4.94l1.23-1.12a3,3,0,0,1,.37-.35c.88-.82,1.77-1.62,2.67-2.41,1.3-1.17,2.62-2.3,3.94-3.42.75-.63,1.49-1.25,2.24-1.86l.31-.26-.25.05A129.87,129.87,0,0,0,477.2,555h0a153.85,153.85,0,0,0-44.31,26.67q-3.63,3.06-7.15,6.38h0c-1.76,1.65-3.5,3.34-5.23,5.09q-1.94,1.95-3.84,4c-3.83,4-7.54,8.34-11.15,12.82q-7,8.76-13.49,18.54a284.42,284.42,0,0,0-14.71,25Q371,665.6,365.57,678.7c-1.2,2.92-2.38,5.86-3.51,8.83l-1.23,3.27c-.4,1.09-.79,2.19-1.19,3.29q-1.8,4.95-3.44,10-3.65,11.14-6.65,22.83c-.37,1.45-.73,2.91-1.08,4.37q-1.1,4.39-2.06,8.85c-.32,1.47-.65,3-1,4.47-.47,2.25-.93,4.5-1.35,6.77s-.84,4.54-1.24,6.83c-.47,2.79-.93,5.57-1.37,8.38-.05.27-.08.56-.12.84q-.31,2-.6,4.08c-.33,2.38-.64,4.78-.94,7.17q-1.32,10.83-2.12,21.91c-.47,6.75-.81,13.56-1,20.45Q336.59,827.07,336.6,833.12Z"/><path class="cls-16" d="M409,555.16l23.91,26.51,30.82-.07A249.94,249.94,0,0,1,489.48,555Z"/><path class="cls-16" d="M347.36,628.59l29.94,24.95,41.8-.1q5.89-13,12.65-25.07Z"/><path class="cls-16" d="M296.42,821.18l86.16-.23c.14-6.86.42-13.69.85-20.44l-45.71.11Z"/><path class="cls-6" d="M432.41,538.63l78.18-.2A215.15,215.15,0,0,0,489.48,555l-80.52.2Z"/><path class="cls-6" d="M359.1,610.06l83.79-.22c-3.88,6-7.59,12.14-11.14,18.53l-84.4.22Z"/><path class="cls-6" d="M308.28,727.06l86-.22q2.73-11.64,6-22.83l-85.78.22Q311.1,715.42,308.28,727.06Z"/><path class="cls-6" d="M296.35,829.85q0,7.1.26,14.14l86.06-.22c-.12-3.79-.18-7.59-.19-11.42s0-7.6.1-11.4l-86.17.23C296.37,824.05,296.34,826.94,296.35,829.85Z"/><path class="cls-13" d="M487.27,517.19a170.88,170.88,0,0,0-19.14,5.58l0,15.77,42.42-.11a183.46,183.46,0,0,1,43.93-22.38Z"/><path class="cls-6" d="M257,829.22A425,425,0,0,0,265,911.08h41.3A432.73,432.73,0,0,1,298.74,844q-.25-7.35-.27-14.77,0-4,.06-8.05c0-.35,0-.71,0-1.06a428.53,428.53,0,0,1,11.77-93.06q2.82-11.61,6.26-22.83a356.29,356.29,0,0,1,32.17-74.46h0c.22-.39.44-.78.68-1.17q5.61-9.58,11.75-18.53A258,258,0,0,1,410,556.25c.44-.37.88-.73,1.33-1.08h0a207.1,207.1,0,0,1,23.52-16.54h0a185.74,185.74,0,0,1,33.28-15.84h0l.77-.27.08,0,.44-.15c1-.34,2-.68,2.95-1l2.46-.79c.56-.16,1.12-.35,1.69-.51,1.08-.33,2.16-.64,3.25-.94,1.66-.46,3.33-.89,5-1.3l1.71-.42.5-.11h0l.28-.07c-1.71-.06-3.39-.08-5.11-.08C357.38,517.44,256.55,657.17,257,829.22Z"/><path class="cls-12" d="M609.45,570.69c3.14.74,6.26,1.61,9.34,2.59a137.4,137.4,0,0,1,37.37,18.92c24.31,17.14,45.58,42.48,62.26,73.69q3.32,6.2,6.37,12.67a315.38,315.38,0,0,1,16.32,42.33,375.21,375.21,0,0,1,15.78,92.32q.42,9,.45,18.18,0,10.47-.49,20.74a383.37,383.37,0,0,1-7.41,59h54.65A391.33,391.33,0,0,0,812,831.26a395.38,395.38,0,0,0-5.11-62.81c-.52-3.18-1.08-6.33-1.67-9.47q-1.19-6.26-2.58-12.39c-.46-2.05-.93-4.08-1.43-6.1s-1-4-1.52-6q-1.2-4.5-2.47-8.91t-2.67-8.74q-1.86-5.76-3.87-11.38c-.69-1.86-1.37-3.73-2.08-5.57s-1.42-3.66-2.14-5.49q-1.66-4.08-3.39-8c-1.17-2.65-2.36-5.28-3.58-7.86q-2.43-5.19-5-10.16-2-3.73-4-7.37l-1.37-2.41c-1.37-2.38-2.78-4.74-4.2-7.06-27.86-45.13-66-75.51-108.79-82.53l-.4-.06c-.52-.08-1-.17-1.55-.23s-1-.15-1.46-.21-1.21-.17-1.81-.23-1.26-.15-1.89-.21c-.47,0-.94-.11-1.43-.14l-1.51-.13q-4.6-.36-9.27-.34c-1.17,0-2.33,0-3.48.06s-2.18.08-3.26.15h-.31c-1.12.07-2.23.16-3.34.26s-2.29.22-3.43.36-2.21.29-3.31.46l-.13,0q-.39,0-.75.12c-.14,0-.28,0-.4.06-.75.11-1.47.24-2.2.37-1.12.2-2.23.42-3.35.66,0,0,0,0,0,0-1.09.23-2.18.48-3.26.74Z"/><path class="cls-6" d="M707.51,832a116.06,116.06,0,0,1-1.72,20.29h.14l84.68-.21c.35-6.83.5-13.75.49-20.73,0-6.13-.16-12.2-.46-18.2l-84.41.22H706A114.92,114.92,0,0,1,707.51,832Z"/><path class="cls-6" d="M463.38,852.89l102.23-.27a117,117,0,0,1-.37-38.93L463.19,814q-.4,9-.38,18.19Q462.83,842.61,463.38,852.89Z"/><path class="cls-6" d="M619.18,743h0a57.51,57.51,0,0,1,16.23-2.38l1.56,0a58,58,0,0,1,19.54,3.92V742l-.41-173a116.53,116.53,0,0,0-37.33-.13Z"/><path class="cls-12" d="M609.86,746.63a61.47,61.47,0,0,1,9.32-3.65h0l-.42-174.16-9.34,1.87Z"/><path class="cls-6" d="M673.42,750.69,671.75,753c10.06,7.47,18.57,18,24.76,30.51l.9-1.27,66.15-92.88a267.07,267.07,0,0,0-19.62-37.72Z"/><path class="cls-12" d="M662.61,744.24,661,746.49A65.82,65.82,0,0,1,671.75,753l1.67-2.34,70.52-99-14.63-1.07Z"/><path class="cls-6" d="M672.19,911.08h46.34l-21.07-29.83h0l-.64-.9C690.68,893,682.22,903.53,672.19,911.08Z"/><path class="cls-6" d="M500.24,667.78l5.07,7.16,72.57,102.68c6.91-11.87,16-21.54,26.56-28L526.55,639.39,522,633A250.08,250.08,0,0,0,500.24,667.78Z"/><path class="cls-12" d="M494,680.61l5.32,7.52L571.61,790.5a97.81,97.81,0,0,1,6.27-12.88L505.31,674.94l-5.07-7.16C498.05,672,496,676.23,494,680.61Z"/><path class="cls-12" d="M381.86,832.36c0,3.82.06,7.61.17,11.41a457.22,457.22,0,0,0,6.7,67.31H457a421.22,421.22,0,0,1-7.53-78.9c-.37-156.79,83.29-284.12,186.86-284.38,58.52-.16,110.88,40.29,145.42,103.78,26.59,48.89,42.63,111.44,42.79,179.64a421.41,421.41,0,0,1-7.34,79.86H827a460.46,460.46,0,0,0,6.71-79.89c-.42-175-97-317.37-217.61-323.92h-.24c-3-.16-5.9-.25-8.88-.23a161.75,161.75,0,0,0-52.69,9h0a174.4,174.4,0,0,0-21.76,9.27,188.63,188.63,0,0,0-22.09,13.11q-7.53,5.12-14.71,11c-2.17,1.77-4.32,3.61-6.44,5.49a249.14,249.14,0,0,0-25.83,26.63,290.65,290.65,0,0,0-20.86,28.26q-5.82,9-11.18,18.53-6.74,12.07-12.68,25.06A385.5,385.5,0,0,0,399.88,704q-3.33,11.22-6.08,22.83a447,447,0,0,0-10.94,73.68Q382.2,810.65,382,821C381.88,824.74,381.85,828.54,381.86,832.36Z"/><path class="cls-6" d="M400.07,832.31A459.56,459.56,0,0,0,407,911.08h64a385,385,0,0,1-7.52-58.19c-.07-1-.12-2.11-.17-3.16,0-.19,0-.37,0-.57,0-1.13-.1-2.29-.14-3.43l-.11-3.38c0-1.12,0-2.25-.07-3.39s0-2.26-.05-3.39,0-2.28,0-3.42c0-1.63,0-3.25,0-4.88q0-1.42,0-2.85c0-.76,0-1.53,0-2.28,0-1.34.06-2.68.11-4,0-.16,0-.31,0-.47,0-1.24.08-2.47.14-3.7,2.1-49.37,13.16-95.07,30.78-133.34.29-.66.6-1.32.91-2q1.06-2.28,2.16-4.52c.39-.79.77-1.58,1.17-2.36.67-1.34,1.35-2.66,2.05-4a1.17,1.17,0,0,1,.05-.11c.72-1.38,1.45-2.76,2.2-4.12.11-.22.22-.42.34-.63q1.16-2.13,2.35-4.21c.05-.09.1-.18.16-.27s.17-.3.26-.44.19-.32.27-.48c.64-1.1,1.27-2.19,1.92-3.26.12-.21.24-.42.37-.62.71-1.18,1.41-2.33,2.13-3.49l.06-.1c.71-1.13,1.42-2.24,2.14-3.35.4-.64.81-1.26,1.22-1.88s1-1.49,1.49-2.23.93-1.38,1.4-2.07l1.61-2.29c.51-.73,1-1.44,1.54-2.15l1.55-2.11c.24-.33.49-.65.73-1,24.13-32.14,54.2-54.32,87.4-62.31h0l.09,0c1.08-.28,2.17-.52,3.26-.74,0,0,0,0,0,0,1.12-.25,2.22-.47,3.35-.66l1.09-.2c.5-.09,1-.17,1.51-.24l.86-.13h0l1.59-.24.94-.11h.07l.19,0,.26,0a2.3,2.3,0,0,1,.26,0l.86-.1c.28,0,.57-.06.85-.09l1.72-.17.31,0c.33,0,.68-.07,1-.09l1.21-.1h0l.77,0h.31l1.62-.09a1.62,1.62,0,0,0,.31,0h.31l.78,0h.8l1.45,0h1.47c1.63,0,3.26,0,4.89.09l2.19.1c.72,0,1.46.09,2.19.15l.94.07c.11,0,.22,0,.34,0l.23,0L649,568c.63.06,1.25.13,1.89.21s1.2.14,1.81.23,1,.13,1.46.21,1.05.15,1.55.23l.4.06c42.76,7,80.93,37.4,108.79,82.53,1.42,2.32,2.83,4.68,4.2,7.06l1.37,2.41q2,3.63,4,7.37,2.61,5,5,10.16c1.23,2.58,2.42,5.21,3.58,7.86s2.29,5.33,3.39,8c.73,1.83,1.45,3.66,2.14,5.49s1.41,3.71,2.08,5.57q2,5.61,3.87,11.38c.93,2.88,1.81,5.79,2.67,8.74s1.69,5.91,2.47,8.91c.52,2,1,4,1.52,6s1,4,1.43,6.1q1.4,6.13,2.58,12.39c.6,3.14,1.16,6.29,1.67,9.47A395.38,395.38,0,0,1,812,831.26a391.33,391.33,0,0,1-7.91,79.82h41.16A460.75,460.75,0,0,0,852,831.15C851.53,651.81,750,506.66,625.24,507q-4.47,0-8.89.29h-.21c-25.59,1.52-50.08,9.17-72.77,22C459.2,576.57,399.74,694.5,400.07,832.31Z"/><polygon class="cls-17" points="624.62 911.08 662.07 911.08 660.53 905.72 624.62 911.08"/><path class="cls-6" d="M579.91,831.85c.09,33.9,13,63.46,32.09,79.23h63.64c8.83-7.3,16.32-17.57,21.82-29.83a115.23,115.23,0,0,0,8.49-29,129.81,129.81,0,0,0,1.54-17.33c0-1.12,0-2.26,0-3.4a130.11,130.11,0,0,0-1.31-18.19,116.32,116.32,0,0,0-8.82-31.08c-6-13.26-14.24-24.17-24-31.56v0a56,56,0,0,0-10.82-6.43,46.85,46.85,0,0,0-6.08-2.26,45.72,45.72,0,0,0-13-1.86,44.06,44.06,0,0,0-6.51.49h0C604.81,745.39,579.81,784.44,579.91,831.85Z"/><path class="cls-12" d="M670.52,871.55c-16.74,0-30.36-17.8-30.41-39.85s13.48-40,30.23-40l-13,0c-16.74,0-30.28,18-30.23,40s13.67,39.89,30.42,39.85Z"/><ellipse class="cls-6" cx="670.43" cy="831.62" rx="30.32" ry="39.92" transform="translate(-1.72 1.39) rotate(-0.12)"/><ellipse class="cls-12" cx="676.95" cy="831.61" rx="17.88" ry="23.54" transform="matrix(1, 0, 0, 1, -1.72, 1.4)"/><path class="cls-6" d="M569.63,896.43,559.2,911.08h40a82.4,82.4,0,0,1-21.91-25.47Z"/><path class="cls-12" d="M562.67,884.6l-18.85,26.48H559.2l10.43-14.65,7.7-10.82a96.32,96.32,0,0,1-6.12-13Z"/><path class="cls-6" d="M882.36,778.61A399.47,399.47,0,0,0,876,725.17a328.28,328.28,0,0,0-13.92-51.61c-.78-2.07-1.45-4.2-2.32-6.24l-2.52-6.15c-1.61-4.13-3.55-8.11-5.41-12.11s-3.87-7.94-5.81-11.9c-1-2-1.93-4-3-5.89L840,625.42c-4.11-7.8-8.63-15.37-13.26-22.9-1.09-1.92-2.41-3.69-3.59-5.56l-3.61-5.58c-2.47-3.67-5.06-7.26-7.49-11l.46-.43c3.14,3.12,6.24,6.31,9.24,9.6,2.85,3.41,5.82,6.75,8.52,10.32,1.35,1.78,2.69,3.57,4,5.39s2.67,3.6,3.88,5.5l3.67,5.65,1.83,2.84,1.7,2.91c2.2,3.94,4.56,7.79,6.46,11.89s4,8.1,5.66,12.32,3.47,8.35,4.94,12.64l2.31,6.38c.8,2.11,1.4,4.31,2.1,6.45a333.14,333.14,0,0,1,12.31,52.79,377,377,0,0,1,3.9,54Z"/><path class="cls-6" d="M905,830.91a337.52,337.52,0,0,0,7.3-39.61,210.62,210.62,0,0,0,1.25-40l-.36-5-.61-5c-.21-1.64-.39-3.29-.66-4.93l-.87-4.89c-.5-3.28-1.25-6.51-1.87-9.76l-.46-2.44-.55-2.43-1-4.86c-.63-3.26-1.53-6.46-2.26-9.71s-1.7-6.44-2.46-9.71-1.77-6.46-2.6-9.72-1.81-6.49-2.58-9.8l.58-.25c1.63,3,3.14,6,4.64,9s2.79,6.15,4.08,9.28,2.45,6.32,3.58,9.53l1.56,4.86c.51,1.62,1,3.24,1.47,4.9a133,133,0,0,1,4,20.13l.57,5.11c.18,1.7.24,3.42.37,5.13l.35,5.12.1,5.14a214.43,214.43,0,0,1-3.14,40.7,307.58,307.58,0,0,1-9.77,39.31Z"/><path class="cls-8" d="M480.23,372.61c10.13,10,25.76,11.78,37.26,4.67.19-.2.36-.42.58-.65,9.82-10.87,39.41-45.29,58.46-49.23.39-.06.75-.15,1.11-.18a12.43,12.43,0,0,1,2.06-.19,4.21,4.21,0,0,0-.79-.39c-.22-.11-.5-.22-.84-.38-1.09-.46-2.71-1.12-4.75-1.91-.56-.21-1.14-.46-1.79-.7a1.69,1.69,0,0,1-.36-.14C552,316.33,505.3,302.82,479.78,329A30.92,30.92,0,0,0,480.23,372.61Z"/><path class="cls-9" d="M485,333.44c-5.57,3.27-8.88,10.12-8.79,16.83s3.5,13.49,9.14,16.64a41.34,41.34,0,0,1-3.7-8.26,30,30,0,0,1-.18-16.88A40.84,40.84,0,0,1,485,333.44Z"/><ellipse class="cls-9" cx="524.45" cy="326.83" rx="10.23" ry="6.23" transform="translate(-57.45 118.86) rotate(-12.26)"/><path class="cls-9" d="M382.66,228.58c14.6-11.15,35.87-8.93,46.75,5.7.17.22.3.47.49.72,8.41,12,33.51,49.85,51.92,56.15a7.31,7.31,0,0,0,1.08.31,13.45,13.45,0,0,0,2,.45,4.85,4.85,0,0,1-.82.28c-.24.08-.53.15-.88.28-1.14.32-2.83.77-5,1.29-.58.15-1.2.32-1.86.48a1.41,1.41,0,0,0-.38.09c-21.31,5.17-75.19,14.21-99.81-18.29A34,34,0,0,1,382.66,228.58Z"/><path class="cls-8" d="M391.86,234.27c11.28-8.62,27-8.48,37.55,0,.17.22.3.47.49.72,8.41,12,33.51,49.85,51.92,56.15.38.1.73.24,1.08.31a13.45,13.45,0,0,0,2,.45,4.85,4.85,0,0,1-.82.28c-.24.08-.53.15-.88.28-1.14.32-2.83.77-5,1.29-.58.15-1.2.32-1.86.48a1.41,1.41,0,0,0-.38.09c-20,4.73-67.92,12.32-90-16.84A30.93,30.93,0,0,1,391.86,234.27Z"/><ellipse class="cls-9" cx="430.08" cy="285.21" rx="6.22" ry="10.23" transform="translate(17.91 595.74) rotate(-70.55)"/><path class="cls-9" d="M490.74,255.55c-.47,12.08,8.73,22.73,20.66,23.09H512c9.59,0,39.28-.7,49.59,6.87a4.32,4.32,0,0,1,.57.47,8.14,8.14,0,0,1,1,.92,2.12,2.12,0,0,0-.16-.55c0-.16-.11-.34-.18-.58-.26-.74-.65-1.82-1.17-3.16-.14-.37-.28-.77-.45-1.19a1.17,1.17,0,0,1-.09-.24c-5.27-13.44-20.73-45.93-47.39-47A22.15,22.15,0,0,0,490.74,255.55Z"/><path class="cls-8" d="M497.25,258.38a20.28,20.28,0,0,0,14.15,20.26H512c9.59,0,39.28-.7,49.59,6.87.2.17.4.3.57.47a8.14,8.14,0,0,1,1,.92,2.12,2.12,0,0,0-.16-.55c0-.16-.11-.34-.18-.58-.26-.74-.65-1.82-1.17-3.16-.14-.37-.28-.77-.45-1.19a1.17,1.17,0,0,1-.09-.24c-5-12.55-19-41.29-42.92-42.23A20.17,20.17,0,0,0,497.25,258.38Z"/><path class="cls-9" d="M413,408.76c-10.73-5.48-15.49-18.73-10-29.37.08-.16.18-.31.28-.5,4.66-8.42,19.76-34.12,18.2-46.85a5.85,5.85,0,0,0-.12-.73,8.78,8.78,0,0,0-.32-1.32,2.14,2.14,0,0,1,.4.41c.12.11.25.26.42.44.51.58,1.26,1.46,2.17,2.57.26.3.53.61.82,1a.64.64,0,0,0,.16.2c9.12,11.18,29.82,40.58,17.73,64.47A22.07,22.07,0,0,1,413,408.76Z"/><path class="cls-8" d="M413.74,401.68A20.31,20.31,0,0,1,403,379.39c.08-.16.18-.31.28-.5,4.66-8.42,19.76-34.12,18.2-46.85,0-.25-.07-.5-.12-.73a8.78,8.78,0,0,0-.32-1.32,2.14,2.14,0,0,1,.4.41c.12.11.25.26.42.44.51.58,1.26,1.46,2.17,2.57.26.3.53.61.82,1a.64.64,0,0,0,.16.2c8.48,10.5,26.63,36.8,15.78,58.24A20.08,20.08,0,0,1,413.74,401.68Z"/><ellipse class="cls-9" cx="432.79" cy="364.45" rx="4.07" ry="6.74" transform="translate(-38.18 50.89) rotate(-6.45)"/><path class="cls-9" d="M437.57,475.93c-6.29-10.3-3.45-24.11,6.77-30.29l.5-.28c8.35-4.72,34.59-18.71,39.89-30.38a5.72,5.72,0,0,0,.28-.68,8.9,8.9,0,0,0,.42-1.3,3.09,3.09,0,0,1,.13.56c0,.16.06.36.12.6.14.76.31,1.9.52,3.33.06.39.13.8.19,1.25a1,1,0,0,0,0,.25c2,14.32,4.31,50.26-18.43,64.27A22.06,22.06,0,0,1,437.57,475.93Z"/><path class="cls-8" d="M441.87,470.27a20.37,20.37,0,0,1,2.47-24.63l.5-.28c8.35-4.72,34.59-18.71,39.89-30.38.1-.24.2-.46.28-.68a8.9,8.9,0,0,0,.42-1.3,3.09,3.09,0,0,1,.13.56c0,.16.06.36.12.6.14.76.31,1.9.52,3.33.06.39.13.8.19,1.25a1,1,0,0,0,0,.25c1.77,13.41,3.56,45.36-16.84,57.94A20.09,20.09,0,0,1,441.87,470.27Z"/><path class="cls-9" d="M686.61,481.84c2.16.69,4.32,1.4,6.47,2.15,4,1.4,8.07,2.92,12.07,4.51,2.75,1.09,5.49,2.22,8.23,3.42s5.66,2.51,8.47,3.84c-6.48-28.24-5.89-52.88,1.82-73.71,9.08-24.58,25.88-37.18,36.17-42.86-41.45,9.57-50.39,50.54-50.39,50.54.78-36,48.85-72.91,50.35-74.07C681.52,391.12,686.61,481.84,686.61,481.84Z"/><path class="cls-10" d="M707.19,445.67c-6.41-6.93-1.24-27.66-.81-30.78a.14.14,0,0,0-.26-.08c-1.29,3.22-5.14,15.38-6.22,18.81-5.59,17.57-6.62,41-6.82,50.37,4,1.4,8.07,2.92,12.07,4.51,2.75,1.09,5.49,2.22,8.23,3.42-2.72-18.18-2.79-42.69.28-57.44l-.56.71a39.77,39.77,0,0,0-5.91,10.48Z"/><path class="cls-18" d="M110.29,575.43a62.76,62.76,0,0,0,30.91,53.28c14.71,8.49,36,17.43,65.76,22.92,0,0-19.73-76.32,10.28-172.23C217.24,479.4,108.39,466.81,110.29,575.43Zm22-3.86c10,6.07,38.1,22.74,45,26.83a1.9,1.9,0,0,1,.66,2.54l-1.19,2.18a1.74,1.74,0,0,1-2.43.71c-6.91-4.1-35.05-20.78-45.07-26.88a1.89,1.89,0,0,1-.63-2.55l1.22-2.16A1.73,1.73,0,0,1,132.31,571.57Zm9.25-24.15c11.68,8.69,32.49,21.15,38.29,24.6a1.9,1.9,0,0,1,.67,2.53l-1.17,2.18a1.76,1.76,0,0,1-2.45.71c-5.91-3.5-26.79-16-38.84-25a1.91,1.91,0,0,1-.39-2.62l1.42-2A1.74,1.74,0,0,1,141.56,547.42Zm9.19-24.26a264.14,264.14,0,0,0,31.64,22.47,1.89,1.89,0,0,1,.67,2.51l-1.15,2.2a1.76,1.76,0,0,1-2.46.72A265.2,265.2,0,0,1,147,528a2,2,0,0,1-.27-2.65l1.52-1.94A1.74,1.74,0,0,1,150.75,523.16Z"/><path class="cls-19" d="M200.29,436.34c75.56,13.51,149.32-77.75,149.32-77.75s-123.35-28.31-220-200C129.59,158.6,42.11,398.77,200.29,436.34ZM167,372.89a3,3,0,0,1,2.86-3.07c25.11-.82,71-17.09,82.8-21.39a3,3,0,0,1,3.81,1.88l1.27,3.64a3.16,3.16,0,0,1-1.8,4c-12.11,4.46-58.94,21.11-85.89,22a3.07,3.07,0,0,1-3.11-3.19Zm-14.06-30.15.19-7.12,2.88-3c18.65-.7,56.67-11.95,67.33-15.21a3,3,0,0,1,3.69,2.1l1.08,3.71a3.14,3.14,0,0,1-2,3.91C214.51,330.66,172,343.27,153,342.74Zm-14-37.25.36-7.16a3,3,0,0,1,2.85-3c11.67-.48,38.76-6.13,51.94-9.1a3,3,0,0,1,3.56,2.38l.8,3.79a3.12,3.12,0,0,1-2.28,3.73c-10.29,2.31-44.22,9.69-56.58,9.35Z"/><path class="cls-20" d="M266.55,544.29c35.68,23,101.3,24.77,79.7-133.4,0,0-21.72,27.83-86.61,62A35.47,35.47,0,0,0,242.5,492.5C238.21,505,239.51,523.52,266.55,544.29Zm35.57-17.14c16.58-15.81,23.28-50,24.56-57.41a1.42,1.42,0,0,1,1.61-1.2l1.63.26a1.47,1.47,0,0,1,1.19,1.71c-1.32,7.8-8.12,43.15-26,60.16a1.39,1.39,0,0,1-2-.15L302,529.21A1.53,1.53,0,0,1,302.12,527.15Zm-16.29-8c17.16-15.4,24.62-40.43,26.24-46.54a1.41,1.41,0,0,1,1.69-1l1.61.4a1.48,1.48,0,0,1,1.05,1.82c-1.68,6.51-9.3,32.49-27.7,49a1.39,1.39,0,0,1-2-.2l-1-1.32A1.53,1.53,0,0,1,285.83,519.13Zm-14.4-11.56c12.31-7.39,24.26-30,27.11-35.61a1.38,1.38,0,0,1,1.89-.63l1.47.76a1.51,1.51,0,0,1,.63,2c-3,6-15.4,29.54-29,37.62a1.38,1.38,0,0,1-1.94-.66l-.74-1.54A1.52,1.52,0,0,1,271.43,507.57Z"/></g></g></svg>